<svg width="400" height="123" viewBox="0 0 400 123" fill="none" xmlns="http://www.w3.org/2000/svg">
<g clip-path="url(#clip0_554_4428)">
<path d="M12.7 39C23.5 39 32.7 32.5 32.7 19.5C32.7 6.5 23.4 0 12.7 0H0V39H12.7ZM7.3 6.4H12C18.7 6.4 25.2 9.9 25.2 19.6C25.2 29.3 18.7 32.6 12 32.6H7.3V6.4ZM67.3 39L52.3 0H45.4L30.4 39H38L41.3 29.9H56.3L59.6 39H67.3ZM48.8 9.4L54 23.7H43.6L48.8 9.4ZM79.5 39V6.4H91.3V0H60.4V6.4H72.2V39H79.5ZM121 39L106 0H99L84 39H91.6L94.9 29.9H110L113.3 39H121ZM102.6 9.4L107.8 23.7H97.3L102.6 9.4Z" fill="#7D25C1"/>
<path d="M26.6 80.3998V73.9998H9.3C8.3 74.0998 7.4 73.3998 7.3 72.3998C7.3 72.2998 7.3 72.1998 7.3 72.0998V63.5998H22.2V57.1998H7.4V49.6998C7.3 48.6998 8 47.7998 9 47.6998C9.1 47.6998 9.2 47.6998 9.3 47.6998H26V41.2998H7.1C2.5 41.2998 0 43.7998 0 48.2998V73.2998C0 77.8998 2.5 80.2998 7.1 80.2998L26.6 80.3998ZM36.4 80.3998V61.9998C36.4 57.1998 36.1 52.5998 36.1 52.5998C36.1 52.5998 37.5 56.8998 39.3 61.3998L47.1 80.3998H52.7L60.4 61.4998C62.2 56.9998 63.6 52.6998 63.6 52.6998C63.6 52.6998 63.3 57.1998 63.3 62.0998V80.3998H70.2V41.3998H61.7L52.7 63.1998C51.6 66.0998 50.6 69.0998 49.9 72.0998C49.2 69.0998 48.2 66.0998 47.1 63.1998L38.1 41.3998H29.6V80.3998H36.4ZM82.2 80.3998V65.4998H90.5C98.6 65.4998 103.4 60.4998 103.4 53.3998C103.4 46.2998 98.6 41.2998 90.5 41.2998H74.8V80.2998H82.2V80.3998ZM82.2 47.4998H90.1C94.4 47.4998 96.2 50.2998 96.2 53.3998C96.2 56.4998 94.4 59.2998 90.1 59.2998H82.2V47.4998ZM123.5 80.7998C134.8 80.7998 143.2 72.2998 143.2 60.7998C143.2 49.2998 134.8 40.7998 123.5 40.7998C112.1 40.7998 103.8 49.2998 103.8 60.7998C103.8 72.2998 112.1 80.7998 123.5 80.7998ZM123.4 74.3998C116.3 74.3998 111.1 68.6998 111.1 60.8998C111.1 53.0998 116.3 47.2998 123.4 47.2998C130.5 47.2998 135.7 53.0998 135.7 60.8998C135.7 68.6998 130.5 74.3998 123.4 74.3998ZM160 80.3998L166.1 59.9998C167.5 55.3998 168.3 50.8998 168.3 50.8998C168.8 53.9998 169.5 56.9998 170.4 59.9998L176.5 80.3998H183.7L195.3 41.3998H187.9L181.8 62.3998C180.5 66.9998 179.7 71.4998 179.7 71.4998C179.1 68.3998 178.4 65.3998 177.5 62.3998L171.1 41.3998H164.8L158.5 62.3998C157.1 66.9998 156.3 71.4998 156.3 71.4998C156.3 71.4998 155.6 66.9998 154.3 62.3998L148.3 41.3998H140.8L152.5 80.3998H160ZM224 80.3998V73.9998H206.7C205.7 74.0998 204.8 73.3998 204.7 72.3998C204.7 72.2998 204.7 72.1998 204.7 72.0998V63.5998H219.6V57.1998H204.7V49.6998C204.6 48.6998 205.3 47.7998 206.3 47.6998C206.4 47.6998 206.5 47.6998 206.6 47.6998H223.3V41.2998H204.4C199.8 41.2998 197.3 43.7998 197.3 48.2998V73.2998C197.3 77.8998 199.8 80.2998 204.4 80.2998L224 80.3998ZM234.3 80.3998V65.6998H242.7C245.5 65.6998 247.9 67.8998 247.9 70.7998L248.8 80.3998H256.1L255.2 69.9998C255.1 66.6998 253.3 63.5998 250.5 61.8998C253.9 60.2998 255.9 56.7998 255.8 53.0998C255.8 46.3998 251 41.4998 242.8 41.4998H226.9V80.4998H234.3V80.3998ZM234.3 47.4998H242.5C246.7 47.4998 248.6 50.0998 248.6 53.3998C248.6 56.6998 246.7 59.3998 242.5 59.3998H234.3V47.4998ZM267.5 80.3998V61.9998C267.5 57.1998 267.2 52.5998 267.2 52.5998C267.2 52.5998 268.6 56.8998 270.4 61.3998L278.2 80.3998H283.8L291.5 61.4998C293.3 56.9998 294.7 52.6998 294.7 52.6998C294.7 52.6998 294.4 57.1998 294.4 62.0998V80.3998H301.3V41.3998H292.8L283.8 63.1998C282.7 66.0998 281.7 69.0998 281 72.0998C280.3 69.0998 279.3 66.0998 278.2 63.1998L269.2 41.3998H260.7V80.3998H267.5ZM332.5 80.3998V73.9998H315.2C314.2 74.0998 313.3 73.3998 313.2 72.3998C313.2 72.2998 313.2 72.1998 313.2 72.0998V63.5998H328.1V57.1998H313.2V49.6998C313.1 48.6998 313.8 47.7998 314.8 47.6998C314.9 47.6998 315 47.6998 315.1 47.6998H331.8V41.2998H313C308.4 41.2998 305.9 43.7998 305.9 48.2998V73.2998C305.9 77.8998 308.4 80.2998 313 80.2998L332.5 80.3998ZM342.8 80.3998V60.3998C342.8 55.5998 342.4 50.9998 342.4 50.9998C343.7 53.7998 345.2 56.5998 346.8 59.1998L359.8 80.2998H367.8V41.2998H360.4V61.2998C360.4 66.0998 360.9 70.6998 360.9 70.6998C360.9 70.6998 358.9 66.5998 356.4 62.4998L343.4 41.3998H335.5V80.3998H342.8ZM388.2 80.3998V47.6998H400V41.2998H369.1V47.6998H380.9V80.3998H388.2Z" fill="#7D25C1"/>
<path d="M7.4 121.7V105.3H22.3V99.0001H7.4V91.0001C7.3 90.0001 8 89.2001 9 89.1001C9.1 89.1001 9.2 89.1001 9.3 89.1001H26V82.8001H7.1C2.5 82.8001 0 85.3001 0 89.8001V121.8H7.4V121.7ZM43.5 122.2C52.6 122.2 58.8 117.1 58.8 107.7V82.7001H51.9V107.7C51.9 113.1 48.4 115.7 43.5 115.7C38.6 115.7 35.1 113 35.1 107.7V82.7001H28.1V107.6C28.2 117.1 34.4 122.2 43.5 122.2ZM70.1 121.7V101.7C70.1 96.9001 69.7 92.3001 69.7 92.3001C71 95.1001 72.5 97.9001 74.1 100.5L87.1 121.6H95.1V82.6001H87.7V102.6C87.7 107.4 88.2 112 88.2 112C88.2 112 86.3 107.9 83.7 103.8L70.7 82.7001H62.8V121.7H70.1ZM112.3 121.7C123.1 121.7 132.3 115.2 132.3 102.2C132.3 89.2001 123.1 82.7001 112.3 82.7001H99.7V121.7H112.3ZM107 89.1001H111.7C118.4 89.1001 124.9 92.6001 124.9 102.3C124.9 112 118.5 115.4 111.7 115.4H107V89.1001Z" fill="#7D25C1"/>
</g>
<defs>
<clipPath id="clip0_554_4428">
<rect width="400" height="122.2" fill="white"/>
</clipPath>
</defs>
</svg>
