<svg width="400" height="123" viewBox="0 0 400 123" fill="none" xmlns="http://www.w3.org/2000/svg">
<path d="M173.624 31.2001C173.65 30.4218 173.52 29.6462 173.241 28.9191C172.963 28.192 172.541 27.5283 172.001 26.9672C171.461 26.4062 170.814 25.9593 170.098 25.653C169.382 25.3467 168.612 25.1872 167.833 25.184C167.059 25.1794 166.292 25.3321 165.578 25.6327C164.865 25.9333 164.22 26.3757 163.682 26.9329C163.145 27.4902 162.726 28.1508 162.452 28.8746C162.177 29.5985 162.052 30.3706 162.085 31.1441C162.058 31.9224 162.188 32.698 162.467 33.4251C162.746 34.1522 163.168 34.8159 163.708 35.377C164.248 35.938 164.895 36.3849 165.611 36.6912C166.327 36.9975 167.097 37.157 167.875 37.1602C168.648 37.1627 169.414 37.0085 170.125 36.707C170.837 36.4054 171.48 35.9628 172.016 35.4057C172.552 34.8487 172.969 34.1888 173.243 33.466C173.517 32.7431 173.641 31.9723 173.608 31.2001M157.665 31.2001C157.664 29.8644 157.927 28.5417 158.438 27.3075C158.948 26.0733 159.697 24.9518 160.641 24.0071C161.586 23.0625 162.707 22.3131 163.941 21.8018C165.175 21.2905 166.497 21.0273 167.833 21.0273C169.169 21.0273 170.491 21.2905 171.725 21.8018C172.959 22.3131 174.08 23.0625 175.024 24.0071C175.969 24.9518 176.718 26.0733 177.228 27.3075C177.739 28.5417 178.001 29.8644 178.001 31.2001C178 33.8959 176.928 36.481 175.021 38.3868C173.114 40.2926 170.529 41.3632 167.833 41.3632C165.137 41.3632 162.552 40.2926 160.645 38.3868C158.738 36.481 157.666 33.8959 157.665 31.2001ZM194.078 30.4629C194.492 30.514 194.912 30.4793 195.311 30.3609C195.711 30.2425 196.082 30.043 196.401 29.7749C197.04 29.2343 197.413 28.4564 197.427 27.6328C197.427 25.7958 196.108 24.8705 193.993 24.8705H190.731V30.59L194.078 30.4629ZM186.503 21.0321H194.363C198.945 21.0321 201.726 23.6826 201.726 27.4938C201.726 31.8305 198.264 34.0674 193.951 34.0674H190.731V39.6733H186.474L186.503 21.0321ZM210.199 21.0321H223.624V24.6926H214.1V28.4615H222.482V32.1219H214.1V36.0281H223.756V39.6733H210.199V21.0321ZM232.23 21.0321H236.1L245.038 32.5202V21.0321H249.176V39.6733H245.6L236.368 27.8277V39.6733H232.23V21.0321ZM166.65 55.3184H161.054V51.5359H176.306V55.3184H170.697V70.1772H166.65V55.3184ZM184.779 51.5359H198.218V55.1812H188.672V58.9653H197.074V62.6105H188.672V66.532H198.337V70.1772H184.779V51.5359ZM206.813 60.8718C206.795 59.6309 207.03 58.3993 207.505 57.2528C207.98 56.1063 208.685 55.0691 209.576 54.205C210.476 53.3313 211.542 52.6463 212.711 52.19C213.88 51.7337 215.129 51.5154 216.383 51.5478C217.717 51.4814 219.05 51.6947 220.296 52.1739C221.543 52.6531 222.675 53.3877 223.621 54.3304L221.045 57.2486C219.805 55.9878 218.124 55.257 216.356 55.21C215.629 55.2203 214.911 55.3756 214.245 55.6669C213.578 55.9582 212.977 56.3796 212.475 56.9063C211.979 57.4272 211.595 58.0441 211.346 58.7191C211.097 59.3941 210.989 60.1128 211.028 60.8311C210.931 62.2885 211.447 63.7188 212.453 64.7915C212.956 65.3243 213.56 65.7506 214.23 66.0453C214.901 66.3399 215.624 66.4967 216.356 66.5065C217.262 66.499 218.157 66.3073 218.986 65.9432C219.815 65.579 220.562 65.05 221.181 64.3882L223.756 66.9472C222.823 68.0127 221.663 68.8553 220.36 69.4128C219.058 69.9704 217.647 70.2287 216.232 70.1687C214.988 70.1904 213.752 69.9638 212.597 69.502C211.441 69.0402 210.389 68.3525 209.503 67.4793C208.626 66.6152 207.935 65.5809 207.472 64.4399C207.01 63.299 206.786 62.0755 206.813 60.8447M232.23 51.5359H236.195V58.9094H243.503V51.5359H247.482V70.1772H243.503V62.6936H236.195V70.1772H232.23V51.5359ZM259.344 51.5359H263.201L272.139 63.0088V51.5359H276.291V70.1772H272.715L263.482 58.3315V70.1772H259.344V51.5359ZM299.028 61.7039C299.054 60.9256 298.924 60.15 298.646 59.4229C298.367 58.6958 297.945 58.0321 297.405 57.471C296.865 56.91 296.218 56.4631 295.502 56.1568C294.786 55.8505 294.016 55.691 293.237 55.6879C292.463 55.6833 291.696 55.8359 290.982 56.1365C290.269 56.4372 289.624 56.8795 289.087 57.4368C288.549 57.994 288.13 58.6546 287.856 59.3785C287.581 60.1023 287.456 60.8744 287.489 61.648C287.462 62.4262 287.592 63.2019 287.871 63.9289C288.15 64.656 288.572 65.3198 289.112 65.8808C289.652 66.4418 290.299 66.8887 291.015 67.195C291.731 67.5014 292.501 67.6608 293.28 67.664C294.052 67.6665 294.818 67.5123 295.53 67.2108C296.241 66.9092 296.884 66.4666 297.42 65.9095C297.956 65.3525 298.373 64.6926 298.647 63.9698C298.921 63.2469 299.045 62.4761 299.013 61.7039M283.069 61.7039C283.069 59.0072 284.141 56.4209 286.047 54.5141C287.954 52.6072 290.54 51.5359 293.237 51.5359C295.934 51.5359 298.52 52.6072 300.427 54.5141C302.334 56.4209 303.405 59.0072 303.405 61.7039C303.405 64.4006 302.334 66.9868 300.427 68.8937C298.52 70.8006 295.934 71.8718 293.237 71.8718C290.54 71.8718 287.954 70.8006 286.047 68.8937C284.141 66.9868 283.069 64.4006 283.069 61.7039ZM311.878 51.5359H316.03V66.4489H325.436V70.1772H311.878V51.5359ZM346.449 61.7039C346.476 60.9256 346.346 60.15 346.067 59.4229C345.788 58.6958 345.366 58.0321 344.826 57.471C344.286 56.91 343.639 56.4631 342.923 56.1568C342.207 55.8505 341.437 55.691 340.659 55.6879C339.886 55.6853 339.12 55.8395 338.409 56.1411C337.697 56.4426 337.054 56.8853 336.518 57.4423C335.982 57.9994 335.565 58.6592 335.291 59.3821C335.017 60.1049 334.893 60.8757 334.926 61.648C334.899 62.4262 335.029 63.2019 335.308 63.9289C335.587 64.656 336.008 65.3198 336.548 65.8808C337.088 66.4418 337.736 66.8887 338.451 67.195C339.167 67.5013 339.938 67.6608 340.716 67.664C341.489 67.6665 342.255 67.5123 342.966 67.2108C343.678 66.9092 344.321 66.4666 344.857 65.9095C345.393 65.3525 345.81 64.6926 346.084 63.9698C346.357 63.2469 346.482 62.4761 346.449 61.7039ZM330.52 61.7039C330.518 60.368 330.781 59.0449 331.291 57.8104C331.802 56.5759 332.551 55.454 333.495 54.509C334.439 53.564 335.56 52.8144 336.795 52.3029C338.029 51.7914 339.351 51.5281 340.687 51.5281C342.023 51.5281 343.346 51.7914 344.58 52.3029C345.814 52.8144 346.936 53.564 347.88 54.509C348.824 55.454 349.573 56.5759 350.084 57.8104C350.594 59.0449 350.856 60.368 350.855 61.7039C350.853 64.3992 349.781 66.9835 347.874 68.8887C345.968 70.7938 343.383 71.864 340.687 71.864C337.992 71.864 335.407 70.7938 333.5 68.8887C331.594 66.9835 330.522 64.3992 330.52 61.7039ZM357.634 60.8837C357.634 58.3857 358.718 55.9895 360.644 54.2355C362.569 52.4816 365.175 51.5139 367.878 51.5495C370.69 51.4139 373.445 52.3053 375.555 54.0288L372.871 56.9893C371.453 55.7688 369.633 55.1178 367.763 55.1625C364.536 55.293 362.028 57.8062 362.15 60.7905C362.054 62.2902 362.637 63.7595 363.758 64.8475C364.919 65.9502 366.466 66.5527 368.066 66.5252C369.494 66.5701 370.904 66.1941 372.12 65.444V62.8969H367.792V59.4568H376.275V67.2979C373.957 69.1553 370.988 70.1738 367.92 70.1653C365.187 70.2941 362.52 69.357 360.566 67.5826C358.615 65.8083 357.556 63.3596 357.649 60.8311M388.612 62.8308L381.359 51.5359H386.218L390.715 59.0195L395.294 51.5359H400L392.761 62.7478V70.1772H388.612V62.8308ZM161.054 83.7344H174.612V87.4627H164.972V91.4383H173.468V95.153H164.972V102.376H161.054V83.7344ZM183.085 94.226V83.7344H187.379V94.1176C187.379 97.0968 188.953 98.6525 191.558 98.6525C194.163 98.6525 195.737 97.1629 195.737 94.2532V83.7344H200.031V94.0905C200.031 99.6405 196.739 102.376 191.529 102.376C186.32 102.376 183.141 99.6676 183.141 94.2532M208.505 83.7344H212.362L221.299 95.2073V83.7344H225.451V102.376H221.875L212.643 90.5164V102.376H208.505V83.7344ZM239.398 98.7084C240.13 98.7506 240.862 98.6376 241.547 98.3768C242.232 98.116 242.854 97.7132 243.372 97.1951C244.426 96.1444 244.996 94.6921 244.94 93.1923C244.977 92.4458 244.86 91.6996 244.595 91.0007C244.33 90.3019 243.923 89.6655 243.399 89.1319C242.881 88.6034 242.256 88.1908 241.567 87.9211C240.878 87.6515 240.139 87.5311 239.4 87.5677H236.277V98.8321L239.398 98.7084ZM232.23 83.7344H239.398C245.184 83.7344 249.176 87.7609 249.176 93.0279C249.176 98.2814 245.184 102.376 239.398 102.376H232.23V83.7344Z" fill="#7D25C1"/>
<path d="M30.6721 0H46.0081V15.3361H30.6721V0ZM30.6721 107.353H46.0081V122.689H30.6721V107.353ZM15.336 15.3361H30.6721V30.6722H15.336V15.3361ZM15.336 92.0165H30.6721V107.353H15.336V92.0165ZM0 30.6722H15.336V92.0165H0V30.6722Z" fill="#7D25C1"/>
<path d="M92.0166 0H107.353V15.3361H92.0166V0ZM107.353 92.0165H122.689V107.353H107.353V92.0165ZM92.0166 107.353H107.353V122.689H92.0166V107.353ZM107.353 15.3361H122.689V30.6722H107.353V15.3361ZM122.689 30.6722H138.025V92.0165H122.689V30.6722Z" fill="#7D25C1"/>
</svg>
