<svg width="418" height="123" viewBox="0 0 418 123" fill="none" xmlns="http://www.w3.org/2000/svg">
<g clip-path="url(#clip0_1784_20413)">
<path fill-rule="evenodd" clip-rule="evenodd" d="M25.422 1.04424L23.6062 2.2375L26.0788 2.50256C29.171 2.83414 31.6374 4.72226 33.1991 7.95437C34.3088 10.251 34.409 10.3191 36.1688 9.98854L37.9898 9.64605L37.6235 12.3163C37.3325 14.4342 37.401 14.9409 37.954 14.7668C40.7281 13.8963 41.5053 13.9332 41.5053 14.9368C41.5053 15.6571 41.9188 15.999 42.9321 16.116C44.2576 16.2688 44.3464 16.4273 44.1861 18.3591C43.9842 20.781 43.0919 22.865 42.1201 23.1826C41.5966 23.3535 41.5209 22.9393 41.7943 21.402C41.9904 20.3002 42.1808 19.1646 42.2171 18.8788C42.2535 18.5929 41.6418 18.2853 40.8568 18.1948C40.0402 18.1003 39.4301 17.7115 39.4301 17.2853C39.4301 16.38 39.1997 16.368 37.003 17.1643C34.5703 18.0452 33.9249 17.2661 34.9848 14.7257C36.0069 12.2753 36.0251 12.3823 34.59 12.3823C33.6494 12.3823 33.115 11.8117 32.177 9.8056C30.6247 6.48618 28.6568 4.6256 26.291 4.24101C22.6313 3.64593 20.1389 6.89207 19.4432 13.1619C19.0053 17.1019 20.0097 27.4635 21.2995 32.3197C22.6443 37.3833 22.583 38.0402 20.4372 41.5789C19.4079 43.2768 18.6603 44.7611 18.7765 44.8776C18.8932 44.994 21.1854 44.2607 23.8702 43.2488C43.7388 35.7581 55.7126 36.9441 64.0738 47.2308C67.1862 51.0596 69.5489 52.4004 73.1838 52.4004C76.8243 52.4004 78.7916 51.3168 80.9494 48.1237C83.2483 44.7211 86.4359 42.2623 89.8725 41.2401C95.8166 39.4715 105.818 40.5946 117.694 44.3646C120.932 45.3926 123.663 46.1524 123.762 46.0532C123.861 45.9539 122.914 44.1255 121.658 41.9905L119.373 38.1077L120.727 31.6118C123.225 19.6199 122.53 6.30324 119.317 4.5809C116.32 2.97394 112.699 5.09646 110.532 9.7318C109.463 12.0196 109.146 12.3205 108.09 12.0549C106.671 11.6984 106.648 11.8512 107.635 15.1109C108.047 16.4689 108.307 17.5795 108.214 17.5795C108.12 17.5795 107.052 17.2287 105.839 16.7999C103.141 15.8468 103.245 15.8463 103.245 16.8129C103.245 17.2729 102.609 17.7328 101.73 17.909L100.215 18.2125L100.946 20.6245C101.826 23.5297 101.844 23.8161 101.144 23.8161C100.396 23.8161 98.6006 19.7181 98.5866 17.9792C98.5777 16.894 98.8807 16.4829 99.8722 16.234C100.816 15.9964 101.169 15.5594 101.169 14.6296C101.169 13.5512 101.351 13.4041 102.337 13.6879C105.692 14.654 105.486 14.7309 105.098 12.662C104.901 11.6101 104.602 10.3882 104.433 9.94696C104.195 9.32642 104.379 9.21676 105.241 9.46415C105.855 9.63981 106.806 9.91058 107.353 10.0655C108.075 10.2697 108.446 10.0192 108.702 9.15595C109.412 6.76215 111.651 4.17448 114.23 2.76813C116.597 1.4782 116.771 1.26875 115.895 0.762031C115.358 0.450722 113.517 0.195542 111.805 0.194502C107.226 0.191384 104.207 2.03949 97.1702 9.14972L91.3553 15.0256L87.0445 13.5013C80.8954 11.3273 75.8385 10.6361 68.3598 10.9469C62.8479 11.1756 61.211 11.4692 56.0981 13.1427L50.1976 15.0745L44.4247 9.11854C38.0204 2.51139 34.6341 0.397191 29.8973 0.0474226C27.7795 -0.108492 26.868 0.094197 25.422 1.04424ZM54.4757 35.7046C54.4757 36.1947 46.2582 37.5937 39.9489 38.1774C36.2295 38.5214 36.092 38.496 36.836 37.5937C38.352 35.754 40.4967 35.2914 47.6014 35.2701C51.382 35.2592 54.4757 35.4546 54.4757 35.7046ZM101.299 37.8281C106.262 39.3894 105.908 40.2022 100.521 39.6144C98.1668 39.3577 93.112 39.1913 89.2878 39.2449C83.3193 39.328 82.4384 39.2386 83.0636 38.6124C85.4117 36.2596 95.0031 35.8475 101.299 37.8281ZM37.237 54.734C31.6831 56.146 26.2848 59.6162 24.6173 62.8462C23.6715 64.6782 23.6513 68.0314 24.5727 70.2407C24.9618 71.1731 26.3554 72.8845 27.67 74.0435C36.519 81.8459 56.6475 80.6075 62.6803 71.8898C65.1473 68.3245 65.0456 63.8207 62.4282 60.7044C58.4374 55.9532 44.983 52.7642 37.237 54.734ZM92.9242 54.5219C89.9711 55.103 84.771 57.5591 82.5987 59.3989C80.4705 61.2018 78.8565 64.2952 78.8715 66.5419C78.9001 70.8145 82.6843 75.2398 88.0857 77.3166C105.775 84.1176 126.418 72.7275 117.552 61.0589C113.647 55.9194 101.802 52.7752 92.9242 54.5219ZM53.7364 56.8133C55.8989 58.083 57.5108 60.1161 58.5723 62.9117L59.1051 64.3165L56.7508 62.5162C54.0109 60.4212 52.1182 60.231 50.0705 61.8442C48.3086 63.2329 46.72 66.6089 46.7049 68.997C46.6904 71.2651 48.5161 75.0782 50.1208 76.1312C51.6238 77.1176 51.284 77.8665 49.3337 77.8665C46.9685 77.8665 44.529 75.7954 42.6804 72.2187C41.2288 69.4097 40.9865 68.4066 40.9865 65.2099C40.9865 60.8536 41.9982 58.4795 44.6177 56.6881C47.025 55.0422 50.8082 55.0941 53.7364 56.8133ZM106.704 57.133C108.101 58.4193 109.597 61.378 110.224 64.094C110.579 65.6308 110.557 65.6215 108.706 63.4636C105.363 59.5658 101.851 59.9581 99.5453 64.4864C97.2734 68.9466 98.5046 74.6032 102.123 76.3302C104.001 77.2267 103.801 77.8665 101.642 77.8665C99.9287 77.8665 96.2104 75.1536 94.559 72.699C90.6409 66.8745 92.67 59.0533 98.8346 56.2177C101.138 55.1586 105.055 55.6138 106.704 57.133ZM56.014 63.7999C56.7009 65.0857 56.7092 67.8329 56.0275 68.2549C55.7396 68.4326 55.0392 68.4311 54.4711 68.2502C52.7221 67.6941 53.269 62.7947 55.0802 62.7947C55.2981 62.7947 55.7183 63.2469 56.014 63.7999ZM107.484 63.6549C109.1 65.12 108.339 68.5116 106.395 68.5116C104.86 68.5116 104.257 65.8231 105.338 63.7999C105.993 62.5733 106.27 62.5546 107.484 63.6549ZM2.46438 69.9346C1.10871 71.3155 0 72.8845 0 73.4208C0 73.9577 0.591451 75.4077 1.31416 76.6436C2.56607 78.7833 2.58786 78.9522 1.77124 80.2005C1.02622 81.3392 1.00495 81.7311 1.60833 83.1967C3.18346 87.0244 8.79705 94.5151 13.9878 99.7169C35.2775 121.052 67.6812 128.474 97.5375 118.854C102.271 117.33 111.635 112.716 116.036 109.74C124.527 104 131.919 96.4713 137.588 87.7873C140.134 83.8869 141.02 81.7524 140.363 81.0944C139.921 80.6516 130.349 83.9617 122.96 87.1127C104.163 95.1283 102.496 95.6922 97.5375 95.7114C93.3828 95.727 91.3703 94.763 86.4359 90.3916C84.4675 88.648 82.6579 87.2214 82.4151 87.2214C82.1717 87.2214 81.973 87.9381 81.973 88.8143C81.973 90.046 81.3458 91.0356 79.2077 93.1778C74.2359 98.1577 69.2833 98.7112 64.2311 94.8513C62.2289 93.3213 60.0375 90.6827 59.5482 89.2129C59.4465 88.9063 57.1544 90.8677 54.455 93.5713C50.4196 97.6126 49.05 98.6515 46.7521 99.416C40.9035 101.36 35.2832 99.3931 25.3696 91.9321C13.7616 83.1951 7.45488 76.0496 5.51917 69.4409L4.92876 67.4238L2.46438 69.9346ZM66.4713 83.5844C63.7724 84.2226 62.383 85.1451 61.7262 86.7328C60.6388 89.3621 62.4292 92.2174 66.4422 94.2547C70.5087 96.319 74.212 95.7593 77.7893 92.5396C80.6838 89.9348 81.1772 87.3586 79.1439 85.4704C76.9208 83.4067 70.9694 82.5211 66.4713 83.5844ZM85.0626 102.857C83.7256 105.359 75.7254 106.701 67.0181 105.885C61.6909 105.385 59.515 104.614 59.2286 103.123C59.047 102.18 59.4242 102.155 69.0799 102.477C74.6017 102.661 79.9367 102.602 80.9354 102.346C81.9341 102.089 83.4013 101.856 84.1962 101.826C85.5046 101.779 85.5866 101.876 85.0626 102.857Z" fill="#7D25C1"/>
<path d="M171.704 79.766V38.7138H187.498C191.062 38.7138 194.238 39.0826 197.024 39.82C199.851 40.5575 202.063 41.889 203.661 43.8146C205.3 45.7402 206.119 48.5057 206.119 52.1111C206.119 55.6755 205.3 58.441 203.661 60.4076C202.063 62.3332 199.851 63.6647 197.024 64.4022C194.238 65.1396 191.062 65.5084 187.498 65.5084H181.414V79.766H171.704ZM181.414 57.4577H187.805C189.321 57.4577 190.673 57.3143 191.861 57.0275C193.09 56.7407 194.053 56.2081 194.75 55.4297C195.487 54.6512 195.856 53.5451 195.856 52.1111C195.856 50.6771 195.487 49.5914 194.75 48.854C194.053 48.0755 193.09 47.5634 191.861 47.3176C190.673 47.0308 189.321 46.8874 187.805 46.8874H181.414V57.4577ZM224.397 80.5035C220.833 80.5035 217.74 79.8479 215.117 78.5369C212.536 77.2258 210.652 75.3002 209.464 72.7601L217.391 69.8717C217.842 71.1418 218.702 72.1046 219.972 72.7601C221.283 73.3746 222.82 73.6819 224.582 73.6819C226.097 73.6819 227.429 73.4566 228.576 73.0059C229.764 72.5143 230.358 71.7973 230.358 70.855C230.358 70.1994 230.01 69.6463 229.314 69.1957C228.617 68.745 227.388 68.3763 225.626 68.0895L220.157 67.1677C217.207 66.676 214.81 65.6722 212.966 64.1563C211.123 62.6404 210.201 60.6124 210.201 58.0723C210.201 55.9418 210.836 54.1596 212.106 52.7256C213.417 51.2917 215.138 50.2265 217.268 49.53C219.399 48.7925 221.714 48.4238 224.213 48.4238C227.122 48.4238 229.805 48.9564 232.263 50.0216C234.763 51.0459 236.586 52.7666 237.733 55.1839L229.867 58.0723C229.58 56.9661 228.904 56.2286 227.839 55.8599C226.773 55.4502 225.544 55.2453 224.151 55.2453C220.792 55.2453 219.112 56.0647 219.112 57.7035C219.112 58.3181 219.399 58.8302 219.972 59.2399C220.546 59.6086 221.509 59.9159 222.861 60.1617L228.515 61.2065C232.202 61.862 234.927 62.8248 236.688 64.0949C238.45 65.365 239.331 67.2701 239.331 69.8102C239.331 72.1865 238.655 74.1736 237.303 75.7714C235.951 77.3692 234.148 78.5574 231.895 79.3358C229.641 80.1142 227.142 80.5035 224.397 80.5035ZM258.409 80.5035C254.844 80.5035 251.751 79.8479 249.129 78.5369C246.548 77.2258 244.663 75.3002 243.475 72.7601L251.403 69.8717C251.854 71.1418 252.714 72.1046 253.984 72.7601C255.295 73.3746 256.831 73.6819 258.593 73.6819C260.109 73.6819 261.441 73.4566 262.588 73.0059C263.776 72.5143 264.37 71.7973 264.37 70.855C264.37 70.1994 264.022 69.6463 263.325 69.1957C262.629 68.745 261.4 68.3763 259.638 68.0895L254.168 67.1677C251.219 66.676 248.822 65.6722 246.978 64.1563C245.134 62.6404 244.213 60.6124 244.213 58.0723C244.213 55.9418 244.848 54.1596 246.118 52.7256C247.429 51.2917 249.15 50.2265 251.28 49.53C253.41 48.7925 255.725 48.4238 258.224 48.4238C261.133 48.4238 263.817 48.9564 266.275 50.0216C268.774 51.0459 270.597 52.7666 271.745 55.1839L263.878 58.0723C263.592 56.9661 262.916 56.2286 261.85 55.8599C260.785 55.4502 259.556 55.2453 258.163 55.2453C254.803 55.2453 253.124 56.0647 253.124 57.7035C253.124 58.3181 253.41 58.8302 253.984 59.2399C254.558 59.6086 255.52 59.9159 256.872 60.1617L262.526 61.2065C266.214 61.862 268.938 62.8248 270.7 64.0949C272.462 65.365 273.342 67.2701 273.342 69.8102C273.342 72.1865 272.666 74.1736 271.314 75.7714C269.962 77.3692 268.16 78.5574 265.906 79.3358C263.653 80.1142 261.154 80.5035 258.409 80.5035ZM292.773 79.766C290.274 79.766 288.287 79.5611 286.812 79.1514C285.337 78.7008 284.272 77.8609 283.617 76.6318C283.002 75.3617 282.695 73.5385 282.695 71.1622V56.413H277.655V49.2842H282.695V41.6637H292.036V49.2842H298.673V56.413H292.036V68.704C292.036 70.138 292.302 71.0803 292.835 71.531C293.408 71.9407 294.453 72.1455 295.969 72.1455H298.673V79.766H292.773ZM309.483 80.5035C307.845 80.5035 306.431 79.9094 305.243 78.7213C304.055 77.5331 303.461 76.1196 303.461 74.4808C303.461 72.8011 304.055 71.3876 305.243 70.2404C306.431 69.0933 307.845 68.5197 309.483 68.5197C311.122 68.5197 312.515 69.0933 313.662 70.2404C314.851 71.3876 315.445 72.8011 315.445 74.4808C315.445 76.1196 314.851 77.5331 313.662 78.7213C312.515 79.9094 311.122 80.5035 309.483 80.5035ZM336.411 80.5035C333.584 80.5035 330.941 79.9299 328.483 78.7827C326.025 77.6355 324.038 75.8738 322.522 73.4975C321.006 71.0803 320.248 68.0485 320.248 64.4022C320.248 60.7148 321.006 57.7035 322.522 55.3682C324.038 52.992 326.025 51.2507 328.483 50.1445C330.941 48.9974 333.584 48.4238 336.411 48.4238C339.197 48.4238 341.819 48.9974 344.277 50.1445C346.736 51.2507 348.723 52.992 350.238 55.3682C351.754 57.7035 352.512 60.7148 352.512 64.4022C352.512 68.0485 351.754 71.0803 350.238 73.4975C348.723 75.8738 346.736 77.6355 344.277 78.7827C341.819 79.9299 339.197 80.5035 336.411 80.5035ZM336.411 73.2517C338.296 73.2517 339.853 72.5757 341.082 71.2237C342.352 69.8717 342.987 67.5978 342.987 64.4022C342.987 61.1655 342.331 58.9122 341.02 57.6421C339.75 56.331 338.214 55.6755 336.411 55.6755C334.567 55.6755 332.99 56.331 331.679 57.6421C330.409 58.9122 329.774 61.1655 329.774 64.4022C329.774 67.5978 330.409 69.8717 331.679 71.2237C332.949 72.5757 334.526 73.2517 336.411 73.2517ZM358.919 79.766V49.2842H366.293L367.952 54.8766C368.895 52.4184 370.185 50.6976 371.824 49.7143C373.463 48.7311 375.45 48.3009 377.785 48.4238V57.765C377.294 57.683 376.864 57.6421 376.495 57.6421C376.126 57.6011 375.716 57.5806 375.266 57.5806C373.012 57.5806 371.271 58.1132 370.042 59.1785C368.854 60.2437 368.26 61.9849 368.26 64.4022V79.766H358.919ZM398.562 92.2414C396.882 92.2414 395.181 92.0161 393.461 91.5654C391.74 91.1557 390.142 90.4182 388.667 89.353C387.192 88.2878 385.984 86.8334 385.041 84.9897L392.662 82.2242C393.235 83.3304 394.055 84.0883 395.12 84.4981C396.185 84.9078 397.25 85.1126 398.316 85.1126C400.282 85.1126 401.86 84.6414 403.048 83.6991C404.236 82.7978 404.83 81.3433 404.83 79.3358V73.8663C403.519 75.5051 402.003 76.7137 400.282 77.4921C398.603 78.2706 396.902 78.6598 395.181 78.6598C392.969 78.6598 390.859 78.0657 388.852 76.8776C386.844 75.6895 385.205 73.9892 383.935 71.7768C382.665 69.5644 382.03 66.9218 382.03 63.8491C382.03 60.2847 382.665 57.3758 383.935 55.1224C385.205 52.8281 386.824 51.1278 388.79 50.0216C390.757 48.9154 392.785 48.3623 394.874 48.3623C396.8 48.3623 398.643 48.7925 400.405 49.6529C402.208 50.5133 403.683 51.7833 404.83 53.4631L406.059 49.2842H414.11V77.4921C414.11 82.5725 412.737 86.3007 409.992 88.677C407.247 91.0533 403.437 92.2414 398.562 92.2414ZM398.5 71.4081C399.729 71.4081 400.835 71.1827 401.819 70.7321C402.843 70.2404 403.662 69.421 404.277 68.2738C404.891 67.1267 405.199 65.5698 405.199 63.6032C405.199 60.6124 404.523 58.5434 403.171 57.3963C401.86 56.2491 400.303 55.6755 398.5 55.6755C396.656 55.6755 395.059 56.2901 393.707 57.5192C392.396 58.7483 391.74 60.6944 391.74 63.3574C391.74 66.0615 392.396 68.0895 393.707 69.4415C395.059 70.7525 396.656 71.4081 398.5 71.4081Z" fill="#7D25C1"/>
</g>
<defs>
<clipPath id="clip0_1784_20413">
<rect width="418" height="123" fill="white"/>
</clipPath>
</defs>
</svg>
