<svg width="418" height="123" viewBox="0 0 418 123" fill="none" xmlns="http://www.w3.org/2000/svg">
<g clip-path="url(#clip0_1784_20413)">
<path fill-rule="evenodd" clip-rule="evenodd" d="M25.422 1.04424L23.6062 2.2375L26.0788 2.50256C29.171 2.83414 31.6374 4.72226 33.1991 7.95437C34.3088 10.251 34.409 10.3191 36.1688 9.98854L37.9898 9.64605L37.6235 12.3163C37.3325 14.4342 37.401 14.9409 37.954 14.7668C40.7281 13.8963 41.5053 13.9332 41.5053 14.9368C41.5053 15.6571 41.9188 15.999 42.9321 16.116C44.2576 16.2688 44.3464 16.4273 44.1861 18.3591C43.9842 20.781 43.0919 22.865 42.1201 23.1826C41.5966 23.3535 41.5209 22.9393 41.7943 21.402C41.9904 20.3002 42.1808 19.1646 42.2171 18.8788C42.2535 18.5929 41.6418 18.2853 40.8568 18.1948C40.0402 18.1003 39.4301 17.7115 39.4301 17.2853C39.4301 16.38 39.1997 16.368 37.003 17.1643C34.5703 18.0452 33.9249 17.2661 34.9848 14.7257C36.0069 12.2753 36.0251 12.3823 34.59 12.3823C33.6494 12.3823 33.115 11.8117 32.177 9.8056C30.6247 6.48618 28.6568 4.6256 26.291 4.24101C22.6313 3.64593 20.1389 6.89207 19.4432 13.1619C19.0053 17.1019 20.0097 27.4635 21.2995 32.3197C22.6443 37.3833 22.583 38.0402 20.4372 41.5789C19.4079 43.2768 18.6603 44.7611 18.7765 44.8776C18.8932 44.994 21.1854 44.2607 23.8702 43.2488C43.7388 35.7581 55.7126 36.9441 64.0738 47.2308C67.1862 51.0596 69.5489 52.4004 73.1838 52.4004C76.8243 52.4004 78.7916 51.3168 80.9494 48.1237C83.2483 44.7211 86.4359 42.2623 89.8725 41.2401C95.8166 39.4715 105.818 40.5946 117.694 44.3646C120.932 45.3926 123.663 46.1524 123.762 46.0532C123.861 45.9539 122.914 44.1255 121.658 41.9905L119.373 38.1077L120.727 31.6118C123.225 19.6199 122.53 6.30324 119.317 4.5809C116.32 2.97394 112.699 5.09646 110.532 9.7318C109.463 12.0196 109.146 12.3205 108.09 12.0549C106.671 11.6984 106.648 11.8512 107.635 15.1109C108.047 16.4689 108.307 17.5795 108.214 17.5795C108.12 17.5795 107.052 17.2287 105.839 16.7999C103.141 15.8468 103.245 15.8463 103.245 16.8129C103.245 17.2729 102.609 17.7328 101.73 17.909L100.215 18.2125L100.946 20.6245C101.826 23.5297 101.844 23.8161 101.144 23.8161C100.396 23.8161 98.6006 19.7181 98.5866 17.9792C98.5777 16.894 98.8807 16.4829 99.8722 16.234C100.816 15.9964 101.169 15.5594 101.169 14.6296C101.169 13.5512 101.351 13.4041 102.337 13.6879C105.692 14.654 105.486 14.7309 105.098 12.662C104.901 11.6101 104.602 10.3882 104.433 9.94696C104.195 9.32642 104.379 9.21676 105.241 9.46415C105.855 9.63981 106.806 9.91058 107.353 10.0655C108.075 10.2697 108.446 10.0192 108.702 9.15595C109.412 6.76215 111.651 4.17448 114.23 2.76813C116.597 1.4782 116.771 1.26875 115.895 0.762031C115.358 0.450722 113.517 0.195542 111.805 0.194502C107.226 0.191384 104.207 2.03949 97.1702 9.14972L91.3553 15.0256L87.0445 13.5013C80.8954 11.3273 75.8385 10.6361 68.3598 10.9469C62.8479 11.1756 61.211 11.4692 56.0981 13.1427L50.1976 15.0745L44.4247 9.11854C38.0204 2.51139 34.6341 0.397191 29.8973 0.0474226C27.7795 -0.108492 26.868 0.094197 25.422 1.04424ZM54.4757 35.7046C54.4757 36.1947 46.2582 37.5937 39.9489 38.1774C36.2295 38.5214 36.092 38.496 36.836 37.5937C38.352 35.754 40.4967 35.2914 47.6014 35.2701C51.382 35.2592 54.4757 35.4546 54.4757 35.7046ZM101.299 37.8281C106.262 39.3894 105.908 40.2022 100.521 39.6144C98.1668 39.3577 93.112 39.1913 89.2878 39.2449C83.3193 39.328 82.4384 39.2386 83.0636 38.6124C85.4117 36.2596 95.0031 35.8475 101.299 37.8281ZM37.237 54.734C31.6831 56.146 26.2848 59.6162 24.6173 62.8462C23.6715 64.6782 23.6513 68.0314 24.5727 70.2407C24.9618 71.1731 26.3554 72.8845 27.67 74.0435C36.519 81.8459 56.6475 80.6075 62.6803 71.8898C65.1473 68.3245 65.0456 63.8207 62.4282 60.7044C58.4374 55.9532 44.983 52.7642 37.237 54.734ZM92.9242 54.5219C89.9711 55.103 84.771 57.5591 82.5987 59.3989C80.4705 61.2018 78.8565 64.2952 78.8715 66.5419C78.9001 70.8145 82.6843 75.2398 88.0857 77.3166C105.775 84.1176 126.418 72.7275 117.552 61.0589C113.647 55.9194 101.802 52.7752 92.9242 54.5219ZM53.7364 56.8133C55.8989 58.083 57.5108 60.1161 58.5723 62.9117L59.1051 64.3165L56.7508 62.5162C54.0109 60.4212 52.1182 60.231 50.0705 61.8442C48.3086 63.2329 46.72 66.6089 46.7049 68.997C46.6904 71.2651 48.5161 75.0782 50.1208 76.1312C51.6238 77.1176 51.284 77.8665 49.3337 77.8665C46.9685 77.8665 44.529 75.7954 42.6804 72.2187C41.2288 69.4097 40.9865 68.4066 40.9865 65.2099C40.9865 60.8536 41.9982 58.4795 44.6177 56.6881C47.025 55.0422 50.8082 55.0941 53.7364 56.8133ZM106.704 57.133C108.101 58.4193 109.597 61.378 110.224 64.094C110.579 65.6308 110.557 65.6215 108.706 63.4636C105.363 59.5658 101.851 59.9581 99.5453 64.4864C97.2734 68.9466 98.5046 74.6032 102.123 76.3302C104.001 77.2267 103.801 77.8665 101.642 77.8665C99.9287 77.8665 96.2104 75.1536 94.559 72.699C90.6409 66.8745 92.67 59.0533 98.8346 56.2177C101.138 55.1586 105.055 55.6138 106.704 57.133ZM56.014 63.7999C56.7009 65.0857 56.7092 67.8329 56.0275 68.2549C55.7396 68.4326 55.0392 68.4311 54.4711 68.2502C52.7221 67.6941 53.269 62.7947 55.0802 62.7947C55.2981 62.7947 55.7183 63.2469 56.014 63.7999ZM107.484 63.6549C109.1 65.12 108.339 68.5116 106.395 68.5116C104.86 68.5116 104.257 65.8231 105.338 63.7999C105.993 62.5733 106.27 62.5546 107.484 63.6549ZM2.46438 69.9346C1.10871 71.3155 0 72.8845 0 73.4208C0 73.9577 0.591451 75.4077 1.31416 76.6436C2.56607 78.7833 2.58786 78.9522 1.77124 80.2005C1.02622 81.3392 1.00495 81.7311 1.60833 83.1967C3.18346 87.0244 8.79705 94.5151 13.9878 99.7169C35.2775 121.052 67.6812 128.474 97.5375 118.854C102.271 117.33 111.635 112.716 116.036 109.74C124.527 104 131.919 96.4713 137.588 87.7873C140.134 83.8869 141.02 81.7524 140.363 81.0944C139.921 80.6516 130.349 83.9617 122.96 87.1127C104.163 95.1283 102.496 95.6922 97.5375 95.7114C93.3828 95.727 91.3703 94.763 86.4359 90.3916C84.4675 88.648 82.6579 87.2214 82.4151 87.2214C82.1717 87.2214 81.973 87.9381 81.973 88.8143C81.973 90.046 81.3458 91.0356 79.2077 93.1778C74.2359 98.1577 69.2833 98.7112 64.2311 94.8513C62.2289 93.3213 60.0375 90.6827 59.5482 89.2129C59.4465 88.9063 57.1544 90.8677 54.455 93.5713C50.4196 97.6126 49.05 98.6515 46.7521 99.416C40.9035 101.36 35.2832 99.3931 25.3696 91.9321C13.7616 83.1951 7.45488 76.0496 5.51917 69.4409L4.92876 67.4238L2.46438 69.9346ZM66.4713 83.5844C63.7724 84.2226 62.383 85.1451 61.7262 86.7328C60.6388 89.3621 62.4292 92.2174 66.4422 94.2547C70.5087 96.319 74.212 95.7593 77.7893 92.5396C80.6838 89.9348 81.1772 87.3586 79.1439 85.4704C76.9208 83.4067 70.9694 82.5211 66.4713 83.5844ZM85.0626 102.857C83.7256 105.359 75.7254 106.701 67.0181 105.885C61.6909 105.385 59.515 104.614 59.2286 103.123C59.047 102.18 59.4242 102.155 69.0799 102.477C74.6017 102.661 79.9367 102.602 80.9354 102.346C81.9341 102.089 83.4013 101.856 84.1962 101.826C85.5046 101.779 85.5866 101.876 85.0626 102.857Z" fill="#7D25C1"/>
<path d="M163.945 84V39.2949H181.144C185.026 39.2949 188.483 39.6964 191.517 40.4995C194.596 41.3026 197.005 42.7526 198.745 44.8496C200.53 46.9465 201.422 49.9581 201.422 53.8843C201.422 57.7659 200.53 60.7774 198.745 62.919C197.005 65.0159 194.596 66.466 191.517 67.2691C188.483 68.0721 185.026 68.4737 181.144 68.4737H174.519V84H163.945ZM174.519 59.7067H181.479C183.129 59.7067 184.602 59.5505 185.896 59.2382C187.234 58.9259 188.283 58.3459 189.041 57.4982C189.844 56.6505 190.246 55.4458 190.246 53.8843C190.246 52.3227 189.844 51.1404 189.041 50.3373C188.283 49.4896 187.234 48.9319 185.896 48.6642C184.602 48.3519 183.129 48.1958 181.479 48.1958H174.519V59.7067ZM219.319 84.8031C215.437 84.8031 212.069 84.0892 209.213 82.6615C206.403 81.2338 204.35 79.1369 203.056 76.3707L211.69 73.2253C212.18 74.6084 213.117 75.6568 214.5 76.3707C215.928 77.0399 217.601 77.3745 219.52 77.3745C221.17 77.3745 222.62 77.1292 223.87 76.6384C225.164 76.103 225.81 75.3222 225.81 74.296C225.81 73.5822 225.431 72.9799 224.673 72.4891C223.914 71.9983 222.576 71.5968 220.657 71.2845L214.701 70.2806C211.489 69.7452 208.879 68.6521 206.871 67.0014C204.863 65.3506 203.859 63.1421 203.859 60.3759C203.859 58.0559 204.551 56.1151 205.934 54.5535C207.362 52.992 209.236 51.832 211.556 51.0735C213.876 50.2704 216.397 49.8689 219.118 49.8689C222.286 49.8689 225.208 50.4489 227.885 51.6089C230.607 52.7243 232.592 54.5981 233.841 57.2305L225.275 60.3759C224.963 59.1713 224.227 58.3682 223.067 57.9666C221.907 57.5205 220.568 57.2974 219.051 57.2974C215.393 57.2974 213.563 58.1897 213.563 59.9744C213.563 60.6436 213.876 61.2013 214.5 61.6475C215.125 62.049 216.173 62.3836 217.646 62.6513L223.803 63.789C227.818 64.5029 230.785 65.5513 232.704 66.9344C234.622 68.3175 235.581 70.3922 235.581 73.1583C235.581 75.7461 234.845 77.9099 233.373 79.65C231.901 81.39 229.937 82.6838 227.484 83.5315C225.03 84.3792 222.308 84.8031 219.319 84.8031ZM254.349 84.8031C250.468 84.8031 247.099 84.0892 244.244 82.6615C241.433 81.2338 239.381 79.1369 238.087 76.3707L246.72 73.2253C247.211 74.6084 248.148 75.6568 249.531 76.3707C250.958 77.0399 252.632 77.3745 254.55 77.3745C256.201 77.3745 257.651 77.1292 258.9 76.6384C260.194 76.103 260.841 75.3222 260.841 74.296C260.841 73.5822 260.462 72.9799 259.703 72.4891C258.945 71.9983 257.606 71.5968 255.688 71.2845L249.732 70.2806C246.519 69.7452 243.909 68.6521 241.901 67.0014C239.894 65.3506 238.89 63.1421 238.89 60.3759C238.89 58.0559 239.581 56.1151 240.965 54.5535C242.392 52.992 244.266 51.832 246.586 51.0735C248.906 50.2704 251.427 49.8689 254.149 49.8689C257.316 49.8689 260.239 50.4489 262.916 51.6089C265.637 52.7243 267.623 54.5981 268.872 57.2305L260.306 60.3759C259.993 59.1713 259.257 58.3682 258.097 57.9666C256.937 57.5205 255.599 57.2974 254.082 57.2974C250.423 57.2974 248.594 58.1897 248.594 59.9744C248.594 60.6436 248.906 61.2013 249.531 61.6475C250.155 62.049 251.204 62.3836 252.676 62.6513L258.833 63.789C262.849 64.5029 265.816 65.5513 267.734 66.9344C269.653 68.3175 270.612 70.3922 270.612 73.1583C270.612 75.7461 269.876 77.9099 268.403 79.65C266.931 81.39 264.968 82.6838 262.514 83.5315C260.06 84.3792 257.339 84.8031 254.349 84.8031ZM289.764 84C287.042 84 284.879 83.7769 283.272 83.3308C281.666 82.84 280.506 81.9254 279.792 80.5869C279.123 79.2038 278.789 77.2184 278.789 74.6307V58.569H273.301V50.8058H278.789V42.5072H288.961V50.8058H296.189V58.569H288.961V71.9537C288.961 73.5153 289.251 74.5414 289.831 75.0322C290.456 75.4784 291.593 75.7014 293.244 75.7014H296.189V84H289.764ZM305.953 84.8031C304.169 84.8031 302.629 84.1562 301.336 82.8623C300.042 81.5684 299.395 80.0292 299.395 78.2446C299.395 76.4153 300.042 74.8761 301.336 73.6268C302.629 72.3776 304.169 71.7529 305.953 71.7529C307.738 71.7529 309.255 72.3776 310.504 73.6268C311.798 74.8761 312.445 76.4153 312.445 78.2446C312.445 80.0292 311.798 81.5684 310.504 82.8623C309.255 84.1562 307.738 84.8031 305.953 84.8031ZM333.269 84.8031C330.191 84.8031 327.313 84.1785 324.636 82.9292C321.959 81.68 319.795 79.7615 318.144 77.1738C316.494 74.5414 315.668 71.2399 315.668 67.2691C315.668 63.2536 316.494 59.9744 318.144 57.4313C319.795 54.8435 321.959 52.9474 324.636 51.7427C327.313 50.4935 330.191 49.8689 333.269 49.8689C336.303 49.8689 339.158 50.4935 341.835 51.7427C344.512 52.9474 346.676 54.8435 348.327 57.4313C349.978 59.9744 350.803 63.2536 350.803 67.2691C350.803 71.2399 349.978 74.5414 348.327 77.1738C346.676 79.7615 344.512 81.68 341.835 82.9292C339.158 84.1785 336.303 84.8031 333.269 84.8031ZM333.269 76.9061C335.322 76.9061 337.017 76.1699 338.355 74.6976C339.738 73.2253 340.43 70.7491 340.43 67.2691C340.43 63.7444 339.716 61.2905 338.288 59.9074C336.905 58.4797 335.232 57.7659 333.269 57.7659C331.261 57.7659 329.544 58.4797 328.116 59.9074C326.733 61.2905 326.041 63.7444 326.041 67.2691C326.041 70.7491 326.733 73.2253 328.116 74.6976C329.499 76.1699 331.217 76.9061 333.269 76.9061ZM355.772 84V50.8058H363.803L365.61 56.8959C366.636 54.2189 368.041 52.345 369.826 51.2743C371.61 50.2035 373.774 49.735 376.317 49.8689V60.0413C375.782 59.952 375.314 59.9074 374.912 59.9074C374.51 59.8628 374.064 59.8405 373.574 59.8405C371.12 59.8405 369.223 60.4205 367.885 61.5805C366.591 62.7405 365.944 64.6367 365.944 67.2691V84H355.772ZM396.935 97.5855C395.105 97.5855 393.254 97.3401 391.38 96.8494C389.506 96.4032 387.766 95.6001 386.16 94.4401C384.554 93.2801 383.238 91.6962 382.211 89.6885L390.51 86.677C391.135 87.8816 392.027 88.707 393.187 89.1531C394.347 89.5993 395.507 89.8224 396.667 89.8224C398.808 89.8224 400.526 89.3093 401.82 88.2831C403.114 87.3016 403.761 85.7177 403.761 83.5315V77.5753C402.333 79.3599 400.682 80.6761 398.808 81.5238C396.979 82.3715 395.128 82.7954 393.254 82.7954C390.845 82.7954 388.547 82.1484 386.361 80.8546C384.174 79.5607 382.39 77.7092 381.007 75.2999C379.624 72.8906 378.932 70.0129 378.932 66.6667C378.932 62.7852 379.624 59.6174 381.007 57.1636C382.39 54.6651 384.152 52.8135 386.294 51.6089C388.435 50.4043 390.644 49.8019 392.919 49.8019C395.016 49.8019 397.024 50.2704 398.942 51.2073C400.905 52.1443 402.512 53.5274 403.761 55.3566L405.099 50.8058H413.866V81.5238C413.866 87.0562 412.372 91.1162 409.382 93.704C406.393 96.2917 402.244 97.5855 396.935 97.5855ZM396.868 74.8984C398.206 74.8984 399.411 74.653 400.482 74.1622C401.597 73.6268 402.489 72.7345 403.159 71.4852C403.828 70.236 404.162 68.5406 404.162 66.399C404.162 63.1421 403.426 60.889 401.954 59.6397C400.526 58.3905 398.831 57.7659 396.868 57.7659C394.86 57.7659 393.12 58.4351 391.648 59.7736C390.22 61.1121 389.506 63.2313 389.506 66.1313C389.506 69.076 390.22 71.2845 391.648 72.7568C393.12 74.1845 394.86 74.8984 396.868 74.8984Z" fill="#7D25C1"/>
</g>
<defs>
<clipPath id="clip0_1784_20413">
<rect width="418" height="123" fill="white"/>
</clipPath>
</defs>
</svg>
